<svg xmlns="http://www.w3.org/2000/svg" fill="none" viewBox="0 0 3325 4280">
  <g clip-path="url(#a)">
    <path fill="#4A3835" d="M431 0h64c6 4 13 7 20 8 112 12 214 54 315 100 74 33 148 68 216 114 54 37 113 27 171 25 187-6 370-48 558-42 76 2 151 10 226 21 116 17 225-4 334-40 127-43 251-94 380-131 66-19 132-42 202-42 43 0 78 20 97 59 45 90 59 189 72 287 15 115 18 230 23 345 1 22 11 39 23 56a993 993 0 0 1 182 445l2 24c-1 5-3 11 0 16 4 9 6 18 3 28-3 5-4 11-1 16 2 5 2 9 1 14-4 8 2 14 4 21 2 8 2 15-2 23-3 5-4 11-4 17 0 79-5 157-15 235-1 10-1 19 3 27 1 5 0 10-3 14-9 11-7 26-8 38-2 21-6 41-6 62 1 54-3 108-4 163-3 76-9 151-22 227-7 38-10 77-20 115v12c-5 40-33 65-61 89a772 772 0 0 1-296 144c-173 52-352 75-531 100-39 6-78 17-118 16-113 4-223 40-316 105 62-25 131-48 203-58 35-5 70-5 105-7 9 2 14 9 19 16 51 77 117 137 198 180 30 15 61 27 90 42 6 8 12 16 24 9 3-1 7 0 10 2 3 3 7 3 11 2s8 0 12 3c5 3 10 0 15-1 8 0 14 3 21 7 59 12 118 9 177 2 32-4 61-18 93-14 5 4 5 10 3 15-20 51-18 106-27 159-1 6-1 12-4 18-5 6-11 7-18 3-8-5-8-15-6-23 6-30 9-59 12-89 1-6 3-13 0-20-24 25-35 81-18 113 9 18 15 35 11 55-3 15 3 28 15 39l3 9c2 21 2 42-1 64-1 6-6 10-10 14-10 8-4 11 4 14l4 7 6 15c9 37 25 72 42 106-14 31-42 20-64 19-134-10-254-67-377-115l-306-120-40-17c-16-5-27 0-26 18 0 14-5 30 8 41v10c-5 8-5 17-4 25 1 46 6 92 12 137 1 6 4 10 7 14 2 3 2 7 2 10-9 13-3 27-1 41 7 48 12 98 27 145 3 3 5 6 6 10 0 5-3 10 1 14 2 3 3 6 2 9-1 5 0 9 3 13 2 4 2 7 1 11-2 24 5 46 10 69 13 57 30 114 44 171 9 40-11 71-50 83-13 4-31 1-37 19l-5 4c-33 4-65 5-96-1-14-13-2-18 8-21 13-3 26-1 38-2 7-1 15 0 17-8 1-9-6-13-13-16-12-5-24-6-37-6-34-1-69-5-97-22-34-21-62-51-73-93-7-30-10-60-17-90-4-16-6-33-23-44-7 8-3 17-6 25-3 10-6 20-20 12-8-21-13-42-6-65 6-4 8-8 8-16-3-132 10-263 15-394v-12c-1-104 4-207 8-311 4-82 17-162 42-240 7-21 21-39 30-59 44-60 96-111 157-154 51-35 102-70 157-99 15-8 29-17 39-31 24-15 49-26 74-38 82-39 163-79 239-128 39-25 49-50 37-95-7-26-16-52-26-77-13-46-31-91-45-137-3-60-5-121 7-181 11-45 15-91 23-137l2-17c14-84 27-168 13-253-7-44-23-84-43-122-18-34-39-66-61-96l-184-245a482 482 0 0 0-268-174c-74-19-149-26-223-35-33-4-67-6-100-7-51 0-102 9-151 27a624 624 0 0 0-278 217c-89 114-149 242-193 379-23 68-48 135-70 203l-3 12c-45 121-85 245-130 366-10 26-17 53-22 81-26 99-28 197 11 294 22 55 60 96 106 131 8 3 13 9 19 14 8 7 15 15 25 19l5 3c6 6 13 13 22 15l5 3c23 21 51 34 77 49 88 49 181 89 273 130 42 19 87 32 123 61 13 10 27 20 35 35 39 63 49 134 51 205 2 56-2 114-19 168-26 80-16 160-6 239 2 13 1 26 13 35 9 23 8 47 10 70 4 52 14 102 21 153 4 26 8 52 9 77 1 20 7 39 5 59 7 102-20 196-66 285-14 28-39 45-69 54-51 16-102 11-153-6-44-23-93-35-141-46l-41-10c-27-6-55-10-81-21-23-11-43-26-58-48-5-7-9-14-8-23 1-4 4-6 3-9-7-31 8-55 23-79l3-4c11-12 18-26 11-43l4-8c7-6 5-13 5-21 0-31-2-63 0-95 4-61 3-122 8-182 1-22-5-42-5-64 1-9-2-18-10-25l-4-9c-6-18-17-24-36-22-43 4-81 24-120 40-67 29-132 63-204 78-73 16-147 17-219-1-26-7-53-14-70-39-13-18-16-40-23-61-4-9-3-19-9-28-2-3-4-6-5-11 2-6 2-12-3-17-2-6-2-13 1-19 3-5 3-11 3-17l-2-230c-3-4-5-7-6-12 0-6 2-12 1-18 5-51 12-101 32-148 6-14 13-27 17-41l45-55c23-7 35 10 46 23 25 29 51 57 77 84 55 56 121 93 198 105 85 12 170 4 251-28 38-15 63-47 86-79 27-38 45-80 51-126 1-9 2-19 9-26 10-6 20-2 29-1 102 10 201 31 296 68-99-49-203-88-313-108-11-2-22-4-34-1-122-16-239-51-358-83-126-33-254-64-381-96a870 870 0 0 1-326-156c-24-19-44-42-63-67-33-46-39-96-25-150 13-47 28-93 45-139 20-53 33-107 28-164-3-34-11-67-15-101-10-70-9-140-4-211 7-112 24-222 52-331 33-133 80-261 159-375 31-44 38-96 40-149 3-100-4-200-11-301-4-56-3-113 8-169 5-21 10-41 20-60 19-35 45-58 86-61 5-3 12 2 16-3Z"/>
    <path fill="#B9A372" d="M1411 4276c-268-12-534-37-796-97-95-22-190-48-274-102-81-53-80-114 2-165 85-54 182-79 278-102 143-34 288-55 434-67 3 4 4 8-1 11h-1c-21 26-27 57-29 90-17 14-40 21-57 36-18 15-42 30-34 56 8 24 36 23 59 24 48 3 94-8 140-19l41-10c56 12 113 25 167 48l15 8c-1 9-4 17-9 24-8 15-14 31-3 45 11 15 28 17 45 14 117-24 207-84 266-188 26-47 40-97 39-151-1-11-3-22 7-30 23-4 46 3 69-4l6 1c12 20 6 43 9 64a364 364 0 0 0 303 308c42 6 59-15 44-54-2-5-5-11-1-17l1 1c4-7 11-10 18-12l21-7c41-13 58-42 49-84-12-54-31-104-42-158-1-7-5-14 2-20 73 5 146 8 219 16 219 24 438 49 649 120 46 16 91 35 130 64 69 49 70 105 0 153-81 55-174 81-269 103-199 47-402 72-606 88l-171 13c-27 4-54-2-80 3h-576c-21-5-43 1-64-3Z"/>
    <path fill="#FDEACA" d="M2051 4279c26-7 53-3 80-3v3h-80Zm-640-3c21 0 43-4 64 3h-64v-3Z"/>
    <path fill="#989698" d="M423 5V0h8c0 5-3 7-8 5Z"/>
    <path fill="#FFBF9E" d="m989 2344-14-12c-38-37-52-83-54-133-2-41-8-82 14-120 12-5 19 2 27 8 92 77 198 65 274-30 51-62 75-135 84-214 11-96-5-187-50-272-33-60-80-103-144-126l-2-6c7-38 18-74 27-111 6-23 13-47 17-71 2-10 4-20 14-25 58-10 117-2 175 3 135 11 270 30 406 29 24 0 47-9 71-1 4 2 8 2 12 0 72-14 145-19 218-26 90-10 180-10 270-9 45 0 89 8 132 17 10 2 20 4 27 13 19 67 32 135 22 206-9 13-19 6-28 2a175 175 0 0 0-215 29c-57 54-88 122-102 197-23 107-8 218 42 315 24 45 56 84 102 109 52 27 104 29 158 4 14-7 27-19 45-20 2 0 4 0 5 2 9 25 2 48-12 69-26 37-64 59-100 84-42 30-84 60-130 85l-6 1c-8 0-16 3-24 4-120 21-231 65-337 124-14 7-27 15-43 18-48 9-96 3-143 4-49 1-98-1-147-5-172-71-353-107-537-130l-31-6c-8 1-15-4-23-6Z"/>
    <path fill="#010101" d="M2490 1260c-47-16-96-22-146-24-169-3-338 8-505 32-120 6-240 3-359-13-100-13-200-19-300-18-35 10-70 13-105-2 47-148 115-286 215-407 71-87 156-156 264-193 57-20 117-29 178-24 76 5 151 13 226 25 125 20 235 68 319 166 42 48 78 99 116 150 46 62 95 121 134 186 28 47 51 95 60 150-3 3-7 4-11 3-29-9-59-15-86-31Z"/>
    <path fill="#FDEACA" d="M1015 2344c127 18 254 37 379 71 67 19 133 41 197 69 33 8 62 26 91 43 9 5 18 10 23 19 2 4 4 8 8 10l4 3c8 8 13 19 26 20h8c12 0 18-7 20-18 6-12 15-21 28-25 6-1 13 2 16-5l4-3c5-2 7-7 9-11l7-5c15-2 29-6 34-23l2-7c54-27 106-55 161-78 70-31 143-55 219-65 5 7 2 12-3 18l-5 4c-95 58-195 109-275 188a468 468 0 0 0-133 271c-23 156-24 313-27 470-1 83-2 165-9 247-2 22-1 44 1 66 2 23 4 47-20 62l-5 5-6 3c-22 2-44 3-66-1l-6-3c-4-9-12-8-20-8-29 1-37-4-39-32-5-77-22-151-29-227-3-34-4-69-8-103-3-36 1-72-1-108s7-71 16-106c12-44 20-88 20-134 0-10 1-20 4-29 3-8 6-17 15-16 10 0 13 9 15 17 4 23 4 47 0 71-9 54-16 108-30 161-14 49-1 95 5 142 10 82 30 163 36 246 2 26 15 48 22 73 3 9 13 8 21 7 10-1 21-3 23-15 4-32 16-63 12-96-3-29 1-59 3-88 5-54 6-109 6-163 0-16 1-31 8-45 5-11 6-23 3-33-13-51-3-103-1-154 1-49 2-98 10-147 17-104 29-210 93-300 31-42 70-73 108-106 26-24 54-44 78-61-57 18-109 56-156 99-3 4-7 6-9 10-22 44-65 64-102 90-12 8-24 15-37 21-46 22-71 62-88 108-6 16-6 33-3 50 2 15 3 30-3 45-3 6-7 12-15 11-7 0-11-5-13-11-8-32-16-63-20-96-2-16 10-26 19-38 9-11 20-19 30-29 6-5 15-9 14-20-10-4-16 2-22 8-16 12-28 28-47 36l-19-3-6-5c-2-4-1-10-5-14l-3-4c-3-12-12-14-22-15l-5-7c-23-29-54-48-87-63-94-42-189-81-281-128-45-23-90-48-133-74-4-2-7-7-13-3l-1-1c-4-12-14-15-24-17l-1-1c-4-6-6-13 0-20Z"/>
    <path fill="#FEEDCC" d="M1685 2647c3-2 7-5 11-2s2 7 0 11c-5 12-16 21-26 29-46 36-49 45-34 102 5 16 7 32 11 48 1 5 2 10 8 10 6 1 6-5 8-9 5-11 5-23 4-35-8-76 25-137 94-172 44-23 91-48 120-86 28-36 62-62 95-91 29-25 70-30 100-52 3-2 10-6 13-1 4 6-2 10-7 13-55 39-108 81-156 128-53 52-86 116-103 189-28 118-39 239-41 360 0 31-2 61 4 92 6 34-15 67-12 103 4 47-3 95-5 142-1 33-8 66-2 99 6 32-11 60-15 91-2 18-27 15-43 15-14 0-11-11-15-19-34-80-27-168-47-251-13-54-27-112-22-168 4-39 16-78 23-117 9-50 24-100 15-152-1-6 0-14-7-14-10-1-9 8-9 14 1 109-50 211-41 321 3 38 9 77 8 115-3 63 16 123 22 185 3 27 7 54 6 80 0 30 16 33 39 29 14-3 19 0 16 14-22 11-42 6-62-5-8-121-34-239-44-360-8-25-9-51-10-78-1-72 23-140 32-210 11-87 14-174-5-260-3-16 0-29 9-41 14-18 28-34 44-50 6-7 15-13 24-17Z"/>
    <path fill="#010101" d="M2906 2878c34-19 64-43 87-74 22-29 34-62 34-99-1-27 0-54 4-81 4-36 20-67 58-79 40-13 75-1 103 28 33 35 46 79 55 125 17 91-13 171-59 248-38 64-89 117-149 161-47 37-101 57-158 70-7 2-13 0-18-6l-2-16c11-10 28-8 39-18 7-5 15-11 12-21-3-9-12-9-20-10-9-1-20 2-27-7-2-4-1-8 1-12 9-64 5-131 34-191-3-8 3-12 6-18Zm-2535 77c-39-84-81-167-142-239-42-48-88-92-144-126-27-17-54-41-46-75 9-35 47-37 77-35 125 5 225 62 303 158 17 21 30 46 45 68-6 25-25 38-41 54l-3 3c-14 10-18 23-13 39-17 49-26 101-32 153-1 2-2 2-4 0Z"/>
    <path fill="#989698" d="m1127 1440 1 3c3 5 4 9 3 14-7 33-12 66-25 98-1 1-3 3-5 3-85 3-131 46-159 143-25 85-19 169 30 247 2 5 3 10 3 16-15 32-19 68-34 100-9 5-16 0-21-6-36-47-63-99-70-159 9-55 30-106 49-158l91-258c3-11 9-21 13-31 6-9 15-12 25-16 26-9 53-9 80-7 8 0 16 2 19 11Z"/>
    <path fill="#2D2323" d="M2863 3171c52 0 96-26 142-48l34-16c3 88-10 172-42 254a74 74 0 0 1-74 51c-9-4-7-14-12-21-26-31-37-69-44-108-3-2-4-4-4-8v-8c-7-8-7-16-1-24l1-72Z"/>
    <path fill="#010101" d="m1635 3663 62 5c13 11 10 23 3 35 9 210-146 335-289 369l-6 2c-25 4-53 10-69-15-16-27 2-51 19-72 44 14 89 19 135 10 57-12 80-53 101-101 32-75 46-152 44-233Z"/>
    <path fill="#97715F" d="M850 1899c19 51 34 104 69 148 5 6 9 14 18 17 8 4 6 9 2 15a293 293 0 0 0 36 253c-55-32-92-80-115-138-39-97-38-196-10-295Zm277-459c-33-8-67-7-99 4l-25 8 48-147 24-70 105 2c-16 68-30 136-53 203Zm1152 896c65-42 130-84 191-132 33-26 53-57 52-100l-3-5 1-9c15-23 37-42 53-64 3-5 7-10 15-7 14 30 24 61 30 93 8 40-12 66-44 85-101 63-208 113-315 164-2-2-3-3-3-5 1-10 7-15 16-17l7-3Z"/>
    <path fill="#010101" d="m1775 3667 1-1-1-1c8-11 18-9 28-4 4 5 4 9 1 14l7 64c3 3 7 6 8 10 3 46 12 91 27 134 27 68 81 98 151 107 10 2 21 1 30 9h103c5 11 10 21 13 31 7 21 0 35-20 43-14 6-27 5-41 3a371 371 0 0 1-301-291c-5-28-4-57-7-86l1-32Z"/>
    <path fill="#483733" d="m1813 3748-2-9c20-5 9-22 12-33 1-6-3-14 4-17 8-3 12 4 16 9 18 16 19 38 24 60l13 76c4 19 16 32 27 48 36 52 89 59 146 62 12 0 25 3 36 7s17 15 15 26c-1 9-13 10-22 10h-37c-9 0-17 1-18 12-89 2-156-39-184-111l-22-101c-3-13 4-28-8-39Z"/>
    <path fill="#97715F" d="M2490 1260c34 3 64 20 97 28 2 13 6 26 7 39 2 56 0 111-9 167l-9 55c-24-21-43-48-67-69 7-65 2-132-15-195-3-8-3-16-4-25Z"/>
    <path fill="#8E796A" d="m1722 2608-55 57c-45 40-54 85-44 146 15 90 9 182-16 271-18 64-20 128-16 194v24c0 2-2 3-3 3-7-3-7-11-8-16-10-55-16-111-16-166-1-29 8-56 16-84 12-46 15-94 20-142 6-60-6-118-22-176-6-23-17-44-26-66l2-3c2 0 3 0 5 2l5 4c10 3 18 10 21 21 7 0 5 6 6 10v1l3 3 1 1c6 4 12 5 19 4l1-1 43-36 51-47c4-1 13-10 13-5v1Z"/>
    <path fill="#010101" d="M1173 3931c-69 30-141 44-216 31-36-6-44-29-22-59 21-31 54-47 86-62 3-1 4 0 6 2 21 56 69 72 120 83l26 5Z"/>
    <path fill="#7B2B26" d="M2551 1700c-10 62-9 126-8 189 4 23-7 42-21 59-5 7-11 13-21 7-14-24-16-51-17-77-3-75-2-150 4-225 1-13 1-26 9-38 8-9 14-3 19 3 19 24 36 49 35 82Z"/>
    <path fill="#2D2323" d="M2238 2601c-20 15-8 33-5 50-116 2-226 28-334 71 95-79 215-122 339-121Zm-1055 59c-5-17-7-34-21-47 17-13 34-3 50 0 84 19 166 44 245 81 27 13 55 23 78 45l-19-5c-59-20-118-41-180-52-43-8-86-12-130-19l-23-3Z"/>
    <path fill="#483733" d="m1804 3675-2-15c-3-3-4-6-4-9 1-78 3-156 8-233 2-30 4-60 4-90 0-80 4-159 6-239 3-98 4-197 23-294 11-51 28-101 54-147 3-6 5-14 15-14l3 1c-2 7-3 14-6 19-36 62-49 131-58 201-5 40-4 81-9 121-5 46 0 93-4 139-4 42-2 84-3 126-3 71-4 142-9 213-4 61-8 121-7 183 0 5 0 12 2 17 7 19 7 19-13 21Z"/>
    <path fill="#989698" d="M2551 1700c-12-32-24-64-48-88-5-3-7-7-8-12 0-33 4-65 7-98 1-8 1-17 9-23 28 18 49 42 65 70-7 50-13 101-25 151Z"/>
    <path fill="#483733" d="M2911 3391c8 5 12 12 12 21-44 11-88 4-131-3-91-14-175-50-259-84l-400-157-13-5c-10-4-14-1-13 10l-1 46c-24-14-10-37-8-56 1-14 18-14 31-9 167 66 333 133 500 198 80 32 163 52 249 55 13 0 28 2 33-16Z"/>
    <path fill="#989698" d="M2507 1957c20-18 28-43 36-68 18 42 33 86 45 130l-65 73c-15-38-18-79-22-119 0-6 0-12 6-16Z"/>
    <path fill="#483733" d="M1066 3306c-12-18-29-21-49-17-60 12-114 40-169 66-95 43-193 72-299 61l-45-6c-87-19-115-51-124-142 8-1 10 4 11 11l17 61c7 21 20 34 41 43 59 26 123 27 186 24 70-4 135-29 200-57 55-24 109-53 167-68 16-4 33-9 49-1 10 6 18 12 15 25Z"/>
    <path fill="#FEEDCC" d="m1559 2652-8-1c-47-51-113-69-173-96-108-48-216-96-317-159l-20-13c11-7 20 1 28 6 118 70 242 125 368 178 42 18 80 40 114 68 6 5 8 10 8 17Z"/>
    <path fill="#483733" d="M2259 2355v6c-6 19-24 25-39 33-96 55-188 114-265 195-15 15-24 36-44 46l-3-2c-1-25 19-39 33-55 63-74 145-124 228-174 26-15 51-34 80-45l1-1c0-9 5-3 9-3Zm1042-719c-10 84-12 168-14 251-2 113-18 224-36 335-2 13-8 25-13 38-5-5-4-11-2-17 19-71 23-144 34-216 4-26 3-53 5-79l8-225c1-25 5-50 8-75 0-7 2-12 10-12Zm-435 1451 1 13c6 19 1 38-4 56l-1 7c-23-9-21-28-17-47 2-13 1-24-7-35-26-35-12-111 28-145 0 45-5 86-13 127-3 12-7 25 13 24Zm-687 632c5 38 18 73 28 110l6 19c32 98 17 125-82 152-1-13 2-21 17-21 6 0 13-2 19-4 37-10 51-36 46-74-3-20-10-39-15-58l-41-174c-1-6-3-12 6-14l16 64Zm-1110-12c-5-78 2-155 4-233 1-54 5-109-5-163 9 0 11 5 11 13 4 40 13 80 5 120l-1 14-4 232c0 8 2 17-10 17Zm1837-829c3 8 0 13-6 18-75 18-150 29-227 23-17-1-36 4-50-12 43 1 86 6 129 2 53-4 104-15 154-31Zm412-1534c4 77 0 154-9 230l-7 54c-11-4-8-14-7-21 10-52 10-106 15-159 2-29 0-58 1-86 0-7-3-15 7-18ZM376 3231l-2-208-1-51c11 0 10 8 10 15v230c0 5 1 12-7 14Zm1747 184 30 191c-8 1-9-4-10-10l-28-163c-1-6-3-15 8-18Zm-16-188 15 180c-22-4-11-23-13-34-6-44-7-88-10-132-1-6 0-12 8-14Zm-1081 616-5-2c0-33 4-64 32-87 3 7-1 12-4 17-13 19-23 39-15 63 2 6-2 8-8 9Z"/>
    <path fill="#5FAE9E" d="M407 2802c-8-5-17-11-14-22 5-13 17-18 30-20 0 16-9 28-16 42Z"/>
    <path fill="#483733" d="m2862 3243 1 24c-7-1-16 10-20-2-3-15 8-19 19-22Zm-1808 511 1-11c7-8 10-18 13-28 10 13 3 32-14 39Z"/>
    <path fill="#FEEDCC" d="M1015 2344v20l-26-20h26Z"/>
    <path fill="#483733" d="m2535 2888 24 8c-11 10-18 8-24-8Z"/>
    <path fill="#FEEDCC" d="M1016 2365c12 0 27-4 24 17l-24-17Z"/>
    <path fill="#4A3835" d="m3317 1303 1 17c-11-5-9-11-1-17Zm-726 1599 12 2c-2 2-4 6-6 6-5 1-6-4-6-8Zm-24-5 12 3c-2 2-4 6-6 6-6 0-6-5-6-9ZM379 3259l-1-12c4 1 9 2 8 7-1 2-4 4-7 5Zm1776 356 2 12c-3 0-8 0-9-5-1-4 3-6 7-7Zm4 20 2 12c-3 0-8 0-9-5-1-4 3-6 7-7Zm1155-2359 1 12c-4-1-8-2-7-7 0-2 4-3 6-5ZM371 2955h4c6 5 2 7-3 8l-1-8Zm2939-1719 1 8-6-4 5-4Zm-447 2039 4 8c-5-1-10-2-4-8Z"/>
    <path fill="#FEFEFE" d="M2505 1971c6 40 17 80 18 121l-1 6c0 3-2 5-4 5-34 17-65 39-105 41-98 4-161-49-202-128a461 461 0 0 1 7-465c42-73 103-121 195-116 35 3 65 18 95 34l3 10-13 123c-10 3-14-5-20-10-63-48-120-43-175 15-84 89-82 282 3 369 53 54 114 57 173 10 8-7 13-18 26-15ZM939 2079l-2-15c12-34 15-71 34-102 14 0 21 11 29 19 51 50 116 50 169 1 43-40 63-92 70-149 6-55 2-110-20-163-20-48-51-85-100-104-6-3-14-4-16-12l25-111c34 4 60 22 84 43 50 44 80 101 97 164 39 138 26 270-53 392-23 35-53 63-90 83-64 34-148 22-203-27l-24-19Z"/>
    <path fill="#010101" d="M1705 2551c-34-30-77-44-114-67l256-1 24-1 3 4c-8 16-23 24-40 29l-4 3c-4 4-3 14-13 10l-2 1c2 11-9 7-13 10l-28 23c-5 10-12 18-24 21l-7-1c-13-3-21-13-28-24h-1c-6 2-9-1-9-7Z"/>
    <path fill="#CC4239" d="M1722 2343h-119c-16 0-30-5-30-22-1-18 13-22 29-22h241c17 0 32 4 32 23-1 19-17 21-33 21h-120Zm-60-240c0-34 27-61 61-61 33 0 63 28 63 61 1 31-29 62-60 63-34 1-65-29-64-63Z"/>
    <path fill="#FEEDCC" d="m2259 2355-9 3c-5-6 1-12 1-19l24-4 1 3-1 1-16 16Z"/>
    <path fill="#B9A372" d="m2518 2103 4-5v6l-4-1Z"/>
    <path fill="#FDEACA" d="M2275 2339v-4l4 1-4 3Z"/>
    <path fill="#FEEDCC" d="m2249 2359-98 61c-52 33-103 67-151 107-36 30-70 63-92 106-54 85-72 181-76 280-11 242-19 484-29 727l-1 20-27 5c1-3 1-8 3-9 27-11 17-35 15-53-4-30-3-60 2-89 1-60 1-120 4-180 4-67 2-134 4-200 3-68 7-135 12-203 4-44 7-90 17-133 17-82 50-157 104-222 55-66 126-112 198-158 31-20 64-39 96-58 6-4 12-6 19-1Zm-415 156 40-29c0 20-19 33-40 29Zm-119 43 28 24c-18 3-25-9-28-24Zm-130 119-22-22c19-5 24 6 22 22Zm166-94 23-21c0 16-7 23-23 21Zm51-44 13-10c5 15-2 15-13 10Zm-187 156c-9 12-16 9-21-3l21 3Zm202-167 13-10c1 10-1 16-13 10Zm-226 159-6-10c11-1 12 3 6 10Zm114-136 9 7c-4 0-8 3-12-1l3-6Z"/>
    <path fill="#5FAE9E" d="M3136 2956c0 27-29 57-53 59-18 1-24-10-21-26 7-25 25-42 50-49 16-5 24 3 24 16Zm-161 139c-9-1-19-4-19-18-1-21 32-50 58-50 12-1 23 2 24 17 2 21-33 50-63 51Zm247-369c0 23-10 44-22 44-22 1-25-18-30-33-5-16-4-32 5-46 9-16 22-17 33-2 9 12 13 26 14 37Zm-18 121c-1 17-12 35-29 48-16 12-29 6-32-12-5-28 7-50 29-65 16-11 31 1 32 29Zm-21-210c-25 0-57-26-60-49-3-17 7-26 23-23 27 3 46 20 53 46 5 15-4 24-16 26Zm-320 519c-5-19-1-38 4-56l16-1c15 0 34-3 37 16s-13 28-28 34c-9 4-19 5-29 7ZM303 2574c16 7 44 2 44 28-1 25-27 28-46 28-19-1-45-3-44-27 0-26 27-23 46-29Zm-120-10-13-1c-15-4-35-5-34-26 1-20 19-25 36-26h8c20 0 45 1 45 25 1 27-26 24-42 28Zm191 151c-19-4-44-4-45-27-2-22 21-23 38-26 3-1 7-3 10-2 17 4 42 4 42 28-1 25-27 22-45 27Z"/>
    <path fill="#CC4239" d="M1103 1554c68 17 107 64 127 127 30 91 27 181-23 266-58 97-156 105-230 21l-6-6-3-10c0-9 2-17 5-25 45-116 86-233 116-354 2-7 3-14 11-18l3-1Z"/>
    <path fill="#7B2B26" d="M1100 1555c-24 98-53 194-89 288l-31 84-12 25c-25-32-38-69-42-108-11-88 0-171 58-241 29-36 68-54 116-48Z"/>
    <path fill="#4A3835" d="M1813 3748c20 6 10 24 12 35 7 35 20 69 18 105-16-26-19-55-24-83l-6-57Z"/>
    <path fill="#CC4239" d="m2505 1971-10 9c-65 64-144 60-203-10-76-91-77-267-2-359 61-75 136-78 208-9l5 10c-11 31-9 64-10 96-2 84-14 168 14 249l-2 14Z"/>
  </g>
  <defs>
    <clipPath id="a">
      <path fill="#fff" d="M0 0h3324v4279H0z"/>
    </clipPath>
  </defs>
</svg>
